<!--?xml version="1.0" standalone="no"?-->              <svg id="sw-js-blob-svg" viewBox="0 0 100 100" xmlns="http://www.w3.org/2000/svg" version="1.1">                    <defs>                         <linearGradient id="sw-gradient" x1="0" x2="1" y1="1" y2="0">                            <stop id="stop1" stop-color="rgba(248, 117, 55, 1)" offset="0%"></stop>                            <stop id="stop2" stop-color="rgba(251, 168, 31, 1)" offset="100%"></stop>                        </linearGradient>                    </defs>                <path fill="url(#sw-gradient)" d="M23.2,-24.6C31.2,-21,39.4,-14.7,42.6,-6.1C45.9,2.6,44.2,13.6,38,19.7C31.8,25.9,21.1,27.2,11.6,29.9C2,32.5,-6.3,36.4,-12.7,34.3C-19.1,32.3,-23.4,24.2,-26.8,16.4C-30.3,8.6,-32.7,1.2,-32.8,-7C-32.8,-15.3,-30.4,-24.3,-24.5,-28.3C-18.7,-32.2,-9.3,-31.1,-0.8,-30.1C7.6,-29.1,15.3,-28.2,23.2,-24.6Z" width="100%" height="100%" transform="translate(50 50)" stroke-width="0" style="transition: all 0.3s ease 0s;"></path>              </svg>